<svg width="32" height="32" viewBox="0 0 32 32" fill="none" xmlns="http://www.w3.org/2000/svg">
  <rect width="32" height="32" rx="6" fill="#3B82F6"/>
  <path d="M8 12C8 10.8954 8.89543 10 10 10H22C23.1046 10 24 10.8954 24 12V20C24 21.1046 23.1046 22 22 22H10C8.89543 22 8 21.1046 8 20V12Z" fill="white"/>
  <circle cx="12" cy="15" r="1.5" fill="#3B82F6"/>
  <circle cx="20" cy="15" r="1.5" fill="#3B82F6"/>
  <path d="M14 18C14 18.5523 14.4477 19 15 19H17C17.5523 19 18 18.5523 18 18" stroke="#3B82F6" stroke-width="1.5" stroke-linecap="round"/>
  <path d="M6 8L10 6L22 6L26 8" stroke="white" stroke-width="2" stroke-linecap="round"/>
</svg>